PathFileType	4	(X/Y/Z)	./resultDataOpenSim/trcMotMarkerGrf/sub09/qtm-14-04.trc
DataRate	CameraRate	NumFrames	NumMarkers	Units	OrigDataRate	OrigDataStartFrame	OrigNumFrames
250.000000	250.000000	9	24	m	250.000000	300	479
Frame#	Time	L.Toe.Tip			R.Toe.Tip			L.Ankle.Lat			R.Ankle.Lat			L.Ankle.Med			R.Ankle.Med			L.Heel			R.Heel			L.Knee.Lat			R.Knee.Lat			L.Knee.Med			R.Knee.Med			L.Thigh.Upper			R.Thigh.Upper			L.ASIS			R.ASIS			V.Sacral			L.Acromium			R.Acromium			C7			L.Elbow			R.Elbow			L.Wrist.Lat			R.Wrist.Lat
		X1	Y1	Z1	X2	Y2	Z2	X3	Y3	Z3	X4	Y4	Z4	X5	Y5	Z5	X6	Y6	Z6	X7	Y7	Z7	X8	Y8	Z8	X9	Y9	Z9	X10	Y10	Z10	X11	Y11	Z11	X12	Y12	Z12	X13	Y13	Z13	X14	Y14	Z14	X15	Y15	Z15	X16	Y16	Z16	X17	Y17	Z17	X18	Y18	Z18	X19	Y19	Z19	X20	Y20	Z20	X21	Y21	Z21	X22	Y22	Z22	X23	Y23	Z23	X24	Y24	Z24

300	1.196	0.13388928	-0.030719798	-0.003957824	1.0592665	0.045161635	0.066402061	0.060086577	0.098238886	-0.078505985	0.91244329	0.051902802	0.10265978	0.092107088	0.10306579	0.014321624	0.9149678	0.093082162	0.011275191	-0.0083036373	0.12127859	-0.034252874	0.8435246	0.030741108	0.054309838	0.33548824	0.41898325	-0.11668429	0.84148915	0.50475817	0.15838561	0.34911617	0.40503628	0.0077013717	0.82398592	0.48282766	0.035814294	0.50509496	0.79361636	-0.13698045	0.59146872	0.81048079	0.226937	0.62287543	0.85948231	-0.10320228	0.65392369	0.88657959	0.13587257	0.47961202	0.93947709	0.036386519	0.6772075	1.3204058	-0.13695988	0.64940449	1.3340823	0.19359404	0.59506624	1.3815456	0.023708841	0.54748086	0.95957596	-0.20078413	0.46540118	1.02967	0.27378125	0.79523981	0.84450906	-0.1784058	0.52710303	0.77338021	0.34804603
301	1.2	0.13512898	-0.030022405	-0.0045914986	1.0604079	0.043575913	0.064886638	0.06467435	0.10074924	-0.080010454	0.91322737	0.051979778	0.10212237	0.097107774	0.1050266	0.012650849	0.91591019	0.092588543	0.010501082	-0.0028998051	0.12545928	-0.035463704	0.8441157	0.031019118	0.054172875	0.34481453	0.41763456	-0.11765575	0.85044152	0.50575233	0.15811169	0.35905314	0.40276845	0.0063632666	0.83211511	0.48427217	0.035557059	0.51320842	0.79217132	-0.13700918	0.59887531	0.81079706	0.22730344	0.6308383	0.85843434	-0.10252075	0.66140266	0.88661051	0.13637564	0.4872772	0.93877704	0.036215349	0.68447072	1.3198694	-0.13691852	0.6568568	1.3333816	0.19387249	0.60234971	1.3809568	0.024007663	0.55393594	0.9592951	-0.20036137	0.47325754	1.0285827	0.27394912	0.80110321	0.84303375	-0.17801877	0.53588963	0.77239872	0.34835957
302	1.204	0.13647944	-0.02919452	-0.0052573693	1.0611436	0.042779845	0.063629055	0.069471106	0.10350994	-0.081358159	0.91360014	0.052221518	0.10157114	0.10231536	0.10714012	0.011149992	0.91644497	0.092095735	0.009736568	0.002802445	0.12988272	-0.036519906	0.84458258	0.031119247	0.053967369	0.35455147	0.41614825	-0.11863893	0.85909508	0.50641492	0.15780216	0.36931564	0.40035469	0.0049816332	0.84005812	0.48561983	0.035157354	0.52127186	0.79077581	-0.1369955	0.60616252	0.81129357	0.2277543	0.63871539	0.85748558	-0.10178877	0.66878162	0.88681356	0.13686234	0.49475042	0.93821681	0.036072	0.69178353	1.3193966	-0.13689935	0.66424773	1.3327728	0.19413433	0.60960672	1.3804561	0.024292623	0.56038424	0.95910547	-0.19993652	0.48136579	1.027521	0.27423197	0.80690682	0.84152083	-0.17766653	0.54479543	0.77149849	0.34867731
303	1.208	0.13795333	-0.02822549	-0.0059445297	1.0616831	0.042296426	0.062841698	0.07451027	0.10652292	-0.082535706	0.9138467	0.05248044	0.1011445	0.10776533	0.10942504	0.0098354228	0.9168114	0.091669816	0.0091394257	0.0088429672	0.13456628	-0.037424906	0.84495312	0.031180234	0.053884639	0.36477661	0.41449513	-0.11967404	0.86742918	0.50688854	0.15749867	0.3799258	0.39782356	0.0035765205	0.84785976	0.48697175	0.034624849	0.52930094	0.78941646	-0.13692717	0.61337189	0.8119391	0.22826948	0.64649594	0.85663612	-0.10100014	0.67606552	0.88718427	0.13734738	0.50189936	0.93782818	0.03600201	0.69909901	1.319001	-0.13685337	0.67157234	1.3322558	0.19438184	0.61682773	1.3800655	0.024549787	0.56682809	0.95900148	-0.19951109	0.48964217	1.026463	0.27460821	0.81265861	0.83996452	-0.17735591	0.55380787	0.77066928	0.34899027
304	1.212	0.13956853	-0.027105653	-0.006635464	1.0621925	0.041850217	0.062461389	0.079830284	0.10977575	-0.083532765	0.91416328	0.052599087	0.10087606	0.11349264	0.1119028	0.0087060191	0.91712345	0.091337816	0.0087476232	0.015253221	0.13951399	-0.038183366	0.84524104	0.031259725	0.053945458	0.37547959	0.41264729	-0.12076546	0.87535615	0.50722792	0.15719529	0.39092224	0.39519906	0.0021969786	0.85554343	0.48838854	0.033982637	0.5373027	0.78808147	-0.13677461	0.62053126	0.81269943	0.22882758	0.65415551	0.85588192	-0.10016511	0.68326632	0.88770444	0.13784703	0.50867465	0.93761457	0.036028775	0.70638189	1.3186858	-0.13675948	0.67882759	1.3318314	0.19461256	0.62399676	1.3797873	0.024767918	0.57327198	0.95897712	-0.19908368	0.4979497	1.0254351	0.27499596	0.81835217	0.83836005	-0.17708659	0.56290287	0.76989864	0.34928678
305	1.216	0.14135404	-0.025811761	-0.0073002827	1.0627012	0.041409848	0.062305641	0.085468214	0.11325522	-0.084342806	0.91465351	0.052497942	0.10070124	0.11951315	0.11459138	0.0077551488	0.91740153	0.09111448	0.0085131395	0.022051188	0.14471781	-0.038801663	0.84546994	0.031353449	0.054057761	0.38666031	0.41061987	-0.12194011	0.88278722	0.5074127	0.15688925	0.40231911	0.39250032	0.00090151416	0.86308666	0.48985249	0.033268585	0.54527515	0.78676404	-0.13645687	0.62764214	0.8135531	0.22940868	0.66167656	0.85523399	-0.099301476	0.69038714	0.88835913	0.1383716	0.51525282	0.93754331	0.036154913	0.71363118	1.3184534	-0.13663469	0.68600904	1.3315121	0.19482201	0.63109422	1.3796039	0.024949381	0.57972039	0.95903877	-0.19865877	0.50617137	1.0244837	0.27532156	0.82396597	0.83671111	-0.17684652	0.57204558	0.76918865	0.34954654
306	1.22	0.14334074	-0.024317501	-0.007909715	1.063161	0.041035836	0.062208143	0.091464714	0.11693583	-0.084958946	0.91529745	0.052253819	0.10054893	0.12583528	0.11748602	0.0069929226	0.91766535	0.0910183	0.0083474339	0.029245083	0.15015303	-0.039285564	0.84565889	0.031452121	0.054135607	0.39829235	0.40847212	-0.12323685	0.88970359	0.5074348	0.15660292	0.41403419	0.38976576	-0.00030292851	0.8704199	0.49127455	0.032529083	0.55320358	0.78546371	-0.13589309	0.6346865	0.8144908	0.22999515	0.66905105	0.85471366	-0.098426087	0.69742036	0.88912571	0.13892234	0.5219413	0.9375727	0.036371144	0.72086195	1.3183116	-0.13650192	0.69311378	1.3313143	0.19500607	0.63809898	1.3795113	0.025098541	0.58617914	0.9591963	-0.19824318	0.51427122	1.0236286	0.2755712	0.82947572	0.83502316	-0.17661541	0.58120413	0.76855133	0.34974891
307	1.224	0.14553717	-0.022612327	-0.0084593802	1.0635286	0.040756799	0.062055	0.097866196	0.12078335	-0.085384893	0.91597285	0.052031057	0.10038653	0.13246029	0.12055734	0.0064420918	0.91795852	0.091044719	0.0081647643	0.036836687	0.15577832	-0.039634947	0.84581372	0.031551245	0.054138582	0.41020869	0.40626893	-0.12460718	0.89614046	0.50732594	0.15633701	0.42589383	0.38707089	-0.0014740958	0.87744264	0.49252779	0.03180908	0.56106323	0.78421397	-0.13513075	0.64164377	0.81549976	0.230572	0.67627939	0.85433765	-0.097553472	0.70436402	0.88996288	0.13949431	0.5288903	0.93769939	0.036634511	0.72807754	1.3182664	-0.13636991	0.70014558	1.3312452	0.19516374	0.6449991	1.3795378	0.025207456	0.59265431	0.95945028	-0.19783893	0.52229105	1.0228649	0.27577411	0.83487554	0.83329801	-0.17638154	0.59036947	0.76799805	0.34988752
308	1.228	0.14791844	-0.020702858	-0.0089777515	1.0637949	0.040556475	0.06178407	0.10471107	0.12477545	-0.085640421	0.91655926	0.051937451	0.10020405	0.13938352	0.1237675	0.0061147542	0.91830606	0.091139324	0.0079187532	0.044825988	0.1615551	-0.039844844	0.84593683	0.031638181	0.05406183	0.42222188	0.40405477	-0.12592558	0.90214851	0.5071288	0.15604974	0.4377489	0.38451421	-0.0026461202	0.88404723	0.49349339	0.031150303	0.56883079	0.78309074	-0.13434193	0.64850043	0.8165543	0.23112487	0.68336655	0.85411296	-0.096698713	0.71122568	0.89082143	0.14008065	0.53600172	0.93795467	0.036887387	0.73526483	1.3183181	-0.13623352	0.70711361	1.3313015	0.19529614	0.65181941	1.379722	0.025264638	0.59914799	0.95979855	-0.19744548	0.53027035	1.0221869	0.27595203	0.84017691	0.83153917	-0.17614782	0.5995507	0.76753789	0.34996574
